<mxfile host="app.diagrams.net" modified="2024-05-09T05:47:11.246Z" agent="Mozilla/5.0 (Macintosh; Intel Mac OS X 10_15_7) AppleWebKit/537.36 (KHTML, like Gecko) Chrome/121.0.0.0 Safari/537.36" etag="cCtKI2WOSnwd0Kk1EIVY" version="24.3.1" type="device" pages="2">
  <diagram name="Страница — 1" id="vcfcwYNNgLeEbnubUIPB">
    <mxGraphModel dx="1041" dy="604" grid="1" gridSize="10" guides="1" tooltips="1" connect="1" arrows="1" fold="1" page="1" pageScale="1" pageWidth="827" pageHeight="1169" math="0" shadow="0">
      <root>
        <mxCell id="0" />
        <mxCell id="1" parent="0" />
        <mxCell id="9lMD8ba5U0IozYzaYxOx-1" value="Клиент" style="swimlane;html=1;startSize=20;fontStyle=0;collapsible=0;horizontal=0;swimlaneLine=1;swimlaneFillColor=#ffffff;strokeWidth=2;whiteSpace=wrap;" parent="1" vertex="1">
          <mxGeometry x="50" y="30" width="3050" height="180" as="geometry" />
        </mxCell>
        <mxCell id="9lMD8ba5U0IozYzaYxOx-11" value="Возникло&lt;div&gt;желание&lt;/div&gt;&lt;div&gt;купить&lt;/div&gt;&lt;div&gt;путевку&lt;/div&gt;" style="points=[[0.145,0.145,0],[0.5,0,0],[0.855,0.145,0],[1,0.5,0],[0.855,0.855,0],[0.5,1,0],[0.145,0.855,0],[0,0.5,0]];shape=mxgraph.bpmn.event;html=1;verticalLabelPosition=bottom;labelBackgroundColor=#ffffff;verticalAlign=top;align=center;perimeter=ellipsePerimeter;outlineConnect=0;aspect=fixed;outline=standard;symbol=general;" parent="9lMD8ba5U0IozYzaYxOx-1" vertex="1">
          <mxGeometry x="30" y="40" width="50" height="50" as="geometry" />
        </mxCell>
        <mxCell id="9lMD8ba5U0IozYzaYxOx-12" value="Обратиться в тур.агентство" style="points=[[0.25,0,0],[0.5,0,0],[0.75,0,0],[1,0.25,0],[1,0.5,0],[1,0.75,0],[0.75,1,0],[0.5,1,0],[0.25,1,0],[0,0.75,0],[0,0.5,0],[0,0.25,0]];shape=mxgraph.bpmn.task;whiteSpace=wrap;rectStyle=rounded;size=10;html=1;container=1;expand=0;collapsible=0;taskMarker=manual;" parent="9lMD8ba5U0IozYzaYxOx-1" vertex="1">
          <mxGeometry x="130" y="25" width="120" height="80" as="geometry" />
        </mxCell>
        <mxCell id="9lMD8ba5U0IozYzaYxOx-13" style="edgeStyle=orthogonalEdgeStyle;rounded=0;orthogonalLoop=1;jettySize=auto;html=1;exitX=1;exitY=0.5;exitDx=0;exitDy=0;exitPerimeter=0;entryX=0;entryY=0.5;entryDx=0;entryDy=0;entryPerimeter=0;" parent="9lMD8ba5U0IozYzaYxOx-1" source="9lMD8ba5U0IozYzaYxOx-11" target="9lMD8ba5U0IozYzaYxOx-12" edge="1">
          <mxGeometry relative="1" as="geometry" />
        </mxCell>
        <mxCell id="9lMD8ba5U0IozYzaYxOx-2" value="&lt;b&gt;Процесс «Оформление путевки в туристическом агентстве»&lt;/b&gt;" style="text;html=1;align=center;verticalAlign=middle;resizable=0;points=[];autosize=1;strokeColor=none;fillColor=none;" parent="1" vertex="1">
          <mxGeometry x="250" width="390" height="30" as="geometry" />
        </mxCell>
        <mxCell id="9lMD8ba5U0IozYzaYxOx-7" value="Туристическое агентство" style="swimlane;html=1;childLayout=stackLayout;resizeParent=1;resizeParentMax=0;horizontal=0;startSize=20;horizontalStack=0;whiteSpace=wrap;" parent="1" vertex="1">
          <mxGeometry x="50" y="240" width="3050" height="870" as="geometry" />
        </mxCell>
        <mxCell id="9lMD8ba5U0IozYzaYxOx-8" value="Менеджер по туризму" style="swimlane;html=1;startSize=20;horizontal=0;" parent="9lMD8ba5U0IozYzaYxOx-7" vertex="1">
          <mxGeometry x="20" width="3030" height="700" as="geometry" />
        </mxCell>
        <mxCell id="9lMD8ba5U0IozYzaYxOx-18" style="edgeStyle=orthogonalEdgeStyle;rounded=0;orthogonalLoop=1;jettySize=auto;html=1;exitX=1;exitY=0.5;exitDx=0;exitDy=0;exitPerimeter=0;" parent="9lMD8ba5U0IozYzaYxOx-8" source="9lMD8ba5U0IozYzaYxOx-14" target="9lMD8ba5U0IozYzaYxOx-16" edge="1">
          <mxGeometry relative="1" as="geometry" />
        </mxCell>
        <mxCell id="9lMD8ba5U0IozYzaYxOx-14" value="Получено&amp;nbsp;&lt;div&gt;обращение&amp;nbsp;&lt;/div&gt;&lt;div&gt;от клиента&lt;/div&gt;" style="points=[[0.145,0.145,0],[0.5,0,0],[0.855,0.145,0],[1,0.5,0],[0.855,0.855,0],[0.5,1,0],[0.145,0.855,0],[0,0.5,0]];shape=mxgraph.bpmn.event;html=1;verticalLabelPosition=bottom;labelBackgroundColor=#ffffff;verticalAlign=top;align=center;perimeter=ellipsePerimeter;outlineConnect=0;aspect=fixed;outline=catching;symbol=message;" parent="9lMD8ba5U0IozYzaYxOx-8" vertex="1">
          <mxGeometry x="145" y="40" width="50" height="50" as="geometry" />
        </mxCell>
        <mxCell id="9lMD8ba5U0IozYzaYxOx-16" value="Принять обращение" style="points=[[0.25,0,0],[0.5,0,0],[0.75,0,0],[1,0.25,0],[1,0.5,0],[1,0.75,0],[0.75,1,0],[0.5,1,0],[0.25,1,0],[0,0.75,0],[0,0.5,0],[0,0.25,0]];shape=mxgraph.bpmn.task;whiteSpace=wrap;rectStyle=rounded;size=10;html=1;container=1;expand=0;collapsible=0;taskMarker=manual;" parent="9lMD8ba5U0IozYzaYxOx-8" vertex="1">
          <mxGeometry x="230" y="25" width="120" height="80" as="geometry" />
        </mxCell>
        <mxCell id="PJ0kJTCqUEVVYsU4-MdF-2" style="edgeStyle=orthogonalEdgeStyle;rounded=0;orthogonalLoop=1;jettySize=auto;html=1;exitX=1;exitY=0.5;exitDx=0;exitDy=0;exitPerimeter=0;" parent="9lMD8ba5U0IozYzaYxOx-8" source="9lMD8ba5U0IozYzaYxOx-19" target="PJ0kJTCqUEVVYsU4-MdF-1" edge="1">
          <mxGeometry relative="1" as="geometry" />
        </mxCell>
        <mxCell id="PJ0kJTCqUEVVYsU4-MdF-3" value="Да" style="edgeLabel;html=1;align=center;verticalAlign=middle;resizable=0;points=[];" parent="PJ0kJTCqUEVVYsU4-MdF-2" vertex="1" connectable="0">
          <mxGeometry x="-0.2025" y="1" relative="1" as="geometry">
            <mxPoint as="offset" />
          </mxGeometry>
        </mxCell>
        <mxCell id="9lMD8ba5U0IozYzaYxOx-19" value="Знаете, куда&amp;nbsp;&lt;div&gt;и когда хотите&lt;div&gt;поехать?&lt;/div&gt;&lt;/div&gt;" style="points=[[0.25,0.25,0],[0.5,0,0],[0.75,0.25,0],[1,0.5,0],[0.75,0.75,0],[0.5,1,0],[0.25,0.75,0],[0,0.5,0]];shape=mxgraph.bpmn.gateway2;html=1;verticalLabelPosition=top;labelBackgroundColor=#ffffff;verticalAlign=bottom;align=center;perimeter=rhombusPerimeter;outlineConnect=0;outline=none;symbol=none;gwType=exclusive;labelPosition=center;" parent="9lMD8ba5U0IozYzaYxOx-8" vertex="1">
          <mxGeometry x="390" y="40" width="50" height="50" as="geometry" />
        </mxCell>
        <mxCell id="9lMD8ba5U0IozYzaYxOx-20" style="edgeStyle=orthogonalEdgeStyle;rounded=0;orthogonalLoop=1;jettySize=auto;html=1;exitX=1;exitY=0.5;exitDx=0;exitDy=0;exitPerimeter=0;entryX=0;entryY=0.5;entryDx=0;entryDy=0;entryPerimeter=0;" parent="9lMD8ba5U0IozYzaYxOx-8" source="9lMD8ba5U0IozYzaYxOx-16" target="9lMD8ba5U0IozYzaYxOx-19" edge="1">
          <mxGeometry relative="1" as="geometry" />
        </mxCell>
        <mxCell id="PJ0kJTCqUEVVYsU4-MdF-1" value="&lt;div&gt;&lt;span style=&quot;background-color: initial;&quot;&gt;Предложить путевки по критериям клиента&lt;/span&gt;&lt;br&gt;&lt;/div&gt;" style="points=[[0.25,0,0],[0.5,0,0],[0.75,0,0],[1,0.25,0],[1,0.5,0],[1,0.75,0],[0.75,1,0],[0.5,1,0],[0.25,1,0],[0,0.75,0],[0,0.5,0],[0,0.25,0]];shape=mxgraph.bpmn.task;whiteSpace=wrap;rectStyle=rounded;size=10;html=1;container=1;expand=0;collapsible=0;taskMarker=manual;" parent="9lMD8ba5U0IozYzaYxOx-8" vertex="1">
          <mxGeometry x="510" y="25" width="120" height="80" as="geometry" />
        </mxCell>
        <mxCell id="PJ0kJTCqUEVVYsU4-MdF-5" value="Есть подходящий&lt;div&gt;вариант?&lt;/div&gt;" style="points=[[0.25,0.25,0],[0.5,0,0],[0.75,0.25,0],[1,0.5,0],[0.75,0.75,0],[0.5,1,0],[0.25,0.75,0],[0,0.5,0]];shape=mxgraph.bpmn.gateway2;html=1;verticalLabelPosition=top;labelBackgroundColor=#ffffff;verticalAlign=bottom;align=center;perimeter=rhombusPerimeter;outlineConnect=0;outline=none;symbol=none;gwType=exclusive;labelPosition=center;" parent="9lMD8ba5U0IozYzaYxOx-8" vertex="1">
          <mxGeometry x="690" y="40" width="50" height="50" as="geometry" />
        </mxCell>
        <mxCell id="PJ0kJTCqUEVVYsU4-MdF-6" style="edgeStyle=orthogonalEdgeStyle;rounded=0;orthogonalLoop=1;jettySize=auto;html=1;exitX=1;exitY=0.5;exitDx=0;exitDy=0;exitPerimeter=0;entryX=0;entryY=0.5;entryDx=0;entryDy=0;entryPerimeter=0;" parent="9lMD8ba5U0IozYzaYxOx-8" source="PJ0kJTCqUEVVYsU4-MdF-1" target="PJ0kJTCqUEVVYsU4-MdF-5" edge="1">
          <mxGeometry relative="1" as="geometry" />
        </mxCell>
        <mxCell id="PJ0kJTCqUEVVYsU4-MdF-8" style="edgeStyle=orthogonalEdgeStyle;rounded=0;orthogonalLoop=1;jettySize=auto;html=1;exitX=0.5;exitY=1;exitDx=0;exitDy=0;exitPerimeter=0;entryX=0.5;entryY=0;entryDx=0;entryDy=0;entryPerimeter=0;" parent="9lMD8ba5U0IozYzaYxOx-8" source="9lMD8ba5U0IozYzaYxOx-19" target="PJ0kJTCqUEVVYsU4-MdF-40" edge="1">
          <mxGeometry relative="1" as="geometry">
            <mxPoint x="415" y="190" as="targetPoint" />
          </mxGeometry>
        </mxCell>
        <mxCell id="PJ0kJTCqUEVVYsU4-MdF-9" value="Нет" style="edgeLabel;html=1;align=center;verticalAlign=middle;resizable=0;points=[];" parent="PJ0kJTCqUEVVYsU4-MdF-8" vertex="1" connectable="0">
          <mxGeometry x="0.0346" y="2" relative="1" as="geometry">
            <mxPoint as="offset" />
          </mxGeometry>
        </mxCell>
        <mxCell id="PJ0kJTCqUEVVYsU4-MdF-10" value="Подбор путевки" style="points=[[0.25,0,0],[0.5,0,0],[0.75,0,0],[1,0.25,0],[1,0.5,0],[1,0.75,0],[0.75,1,0],[0.5,1,0],[0.25,1,0],[0,0.75,0],[0,0.5,0],[0,0.25,0]];shape=mxgraph.bpmn.task;whiteSpace=wrap;rectStyle=rounded;size=10;html=1;container=1;expand=0;collapsible=0;taskMarker=abstract;isLoopSub=1;" parent="9lMD8ba5U0IozYzaYxOx-8" vertex="1">
          <mxGeometry x="355" y="448" width="120" height="80" as="geometry" />
        </mxCell>
        <mxCell id="PJ0kJTCqUEVVYsU4-MdF-11" value="" style="points=[[0.145,0.145,0],[0.5,0,0],[0.855,0.145,0],[1,0.5,0],[0.855,0.855,0],[0.5,1,0],[0.145,0.855,0],[0,0.5,0]];shape=mxgraph.bpmn.event;html=1;verticalLabelPosition=bottom;labelBackgroundColor=#ffffff;verticalAlign=top;align=center;perimeter=ellipsePerimeter;outlineConnect=0;aspect=fixed;outline=boundInt;symbol=error;" parent="PJ0kJTCqUEVVYsU4-MdF-10" vertex="1">
          <mxGeometry x="85" y="60" width="50" height="50" as="geometry" />
        </mxCell>
        <mxCell id="PJ0kJTCqUEVVYsU4-MdF-12" value="Завершить обслуживание" style="points=[[0.145,0.145,0],[0.5,0,0],[0.855,0.145,0],[1,0.5,0],[0.855,0.855,0],[0.5,1,0],[0.145,0.855,0],[0,0.5,0]];shape=mxgraph.bpmn.event;html=1;verticalLabelPosition=bottom;labelBackgroundColor=#ffffff;verticalAlign=top;align=center;perimeter=ellipsePerimeter;outlineConnect=0;aspect=fixed;outline=end;symbol=terminate2;" parent="9lMD8ba5U0IozYzaYxOx-8" vertex="1">
          <mxGeometry x="440" y="582" width="50" height="50" as="geometry" />
        </mxCell>
        <mxCell id="PJ0kJTCqUEVVYsU4-MdF-13" style="edgeStyle=orthogonalEdgeStyle;rounded=0;orthogonalLoop=1;jettySize=auto;html=1;exitX=0.5;exitY=1;exitDx=0;exitDy=0;exitPerimeter=0;entryX=0.5;entryY=0;entryDx=0;entryDy=0;entryPerimeter=0;" parent="9lMD8ba5U0IozYzaYxOx-8" source="PJ0kJTCqUEVVYsU4-MdF-11" target="PJ0kJTCqUEVVYsU4-MdF-12" edge="1">
          <mxGeometry relative="1" as="geometry" />
        </mxCell>
        <mxCell id="PJ0kJTCqUEVVYsU4-MdF-14" value="&lt;div&gt;&lt;span style=&quot;background-color: initial;&quot;&gt;Запросить информацию о возможности бронирования&lt;/span&gt;&lt;br&gt;&lt;/div&gt;" style="points=[[0.25,0,0],[0.5,0,0],[0.75,0,0],[1,0.25,0],[1,0.5,0],[1,0.75,0],[0.75,1,0],[0.5,1,0],[0.25,1,0],[0,0.75,0],[0,0.5,0],[0,0.25,0]];shape=mxgraph.bpmn.task;whiteSpace=wrap;rectStyle=rounded;size=10;html=1;container=1;expand=0;collapsible=0;taskMarker=manual;" parent="9lMD8ba5U0IozYzaYxOx-8" vertex="1">
          <mxGeometry x="990" y="25" width="120" height="80" as="geometry" />
        </mxCell>
        <mxCell id="PJ0kJTCqUEVVYsU4-MdF-15" style="edgeStyle=orthogonalEdgeStyle;rounded=0;orthogonalLoop=1;jettySize=auto;html=1;exitX=1;exitY=0.5;exitDx=0;exitDy=0;exitPerimeter=0;entryX=0;entryY=0.5;entryDx=0;entryDy=0;entryPerimeter=0;" parent="9lMD8ba5U0IozYzaYxOx-8" source="PJ0kJTCqUEVVYsU4-MdF-5" target="PJ0kJTCqUEVVYsU4-MdF-45" edge="1">
          <mxGeometry relative="1" as="geometry" />
        </mxCell>
        <mxCell id="PJ0kJTCqUEVVYsU4-MdF-16" value="Да" style="edgeLabel;html=1;align=center;verticalAlign=middle;resizable=0;points=[];" parent="PJ0kJTCqUEVVYsU4-MdF-15" vertex="1" connectable="0">
          <mxGeometry x="-0.1845" relative="1" as="geometry">
            <mxPoint as="offset" />
          </mxGeometry>
        </mxCell>
        <mxCell id="PJ0kJTCqUEVVYsU4-MdF-26" value="Получена информация&lt;div&gt;от службы бронирования&lt;/div&gt;" style="points=[[0.145,0.145,0],[0.5,0,0],[0.855,0.145,0],[1,0.5,0],[0.855,0.855,0],[0.5,1,0],[0.145,0.855,0],[0,0.5,0]];shape=mxgraph.bpmn.event;html=1;verticalLabelPosition=top;labelBackgroundColor=#ffffff;verticalAlign=bottom;align=center;perimeter=ellipsePerimeter;outlineConnect=0;aspect=fixed;outline=catching;symbol=message;labelPosition=center;" parent="9lMD8ba5U0IozYzaYxOx-8" vertex="1">
          <mxGeometry x="1215" y="40" width="50" height="50" as="geometry" />
        </mxCell>
        <mxCell id="PJ0kJTCqUEVVYsU4-MdF-28" value="Подобрать вариант&lt;div&gt;по другим критериям?&lt;/div&gt;" style="points=[[0.25,0.25,0],[0.5,0,0],[0.75,0.25,0],[1,0.5,0],[0.75,0.75,0],[0.5,1,0],[0.25,0.75,0],[0,0.5,0]];shape=mxgraph.bpmn.gateway2;html=1;verticalLabelPosition=middle;labelBackgroundColor=#ffffff;verticalAlign=middle;align=right;perimeter=rhombusPerimeter;outlineConnect=0;outline=none;symbol=none;gwType=exclusive;labelPosition=left;" parent="9lMD8ba5U0IozYzaYxOx-8" vertex="1">
          <mxGeometry x="690" y="205" width="50" height="50" as="geometry" />
        </mxCell>
        <mxCell id="PJ0kJTCqUEVVYsU4-MdF-29" style="edgeStyle=orthogonalEdgeStyle;rounded=0;orthogonalLoop=1;jettySize=auto;html=1;exitX=0.5;exitY=1;exitDx=0;exitDy=0;exitPerimeter=0;entryX=0.5;entryY=0;entryDx=0;entryDy=0;entryPerimeter=0;" parent="9lMD8ba5U0IozYzaYxOx-8" source="PJ0kJTCqUEVVYsU4-MdF-5" target="PJ0kJTCqUEVVYsU4-MdF-28" edge="1">
          <mxGeometry relative="1" as="geometry" />
        </mxCell>
        <mxCell id="PJ0kJTCqUEVVYsU4-MdF-37" value="Нет" style="edgeLabel;html=1;align=center;verticalAlign=middle;resizable=0;points=[];" parent="PJ0kJTCqUEVVYsU4-MdF-29" vertex="1" connectable="0">
          <mxGeometry x="0.1099" y="-2" relative="1" as="geometry">
            <mxPoint as="offset" />
          </mxGeometry>
        </mxCell>
        <mxCell id="PJ0kJTCqUEVVYsU4-MdF-30" value="Клиент не хочет&amp;nbsp;&lt;div&gt;менять&amp;nbsp;&lt;/div&gt;&lt;div&gt;критерии поиска&lt;/div&gt;" style="points=[[0.145,0.145,0],[0.5,0,0],[0.855,0.145,0],[1,0.5,0],[0.855,0.855,0],[0.5,1,0],[0.145,0.855,0],[0,0.5,0]];shape=mxgraph.bpmn.event;html=1;verticalLabelPosition=top;labelBackgroundColor=#ffffff;verticalAlign=bottom;align=center;perimeter=ellipsePerimeter;outlineConnect=0;aspect=fixed;outline=catching;symbol=conditional;labelPosition=center;" parent="9lMD8ba5U0IozYzaYxOx-8" vertex="1">
          <mxGeometry x="800" y="205" width="50" height="50" as="geometry" />
        </mxCell>
        <mxCell id="PJ0kJTCqUEVVYsU4-MdF-31" style="edgeStyle=orthogonalEdgeStyle;rounded=0;orthogonalLoop=1;jettySize=auto;html=1;exitX=1;exitY=0.5;exitDx=0;exitDy=0;exitPerimeter=0;entryX=0;entryY=0.5;entryDx=0;entryDy=0;entryPerimeter=0;" parent="9lMD8ba5U0IozYzaYxOx-8" source="PJ0kJTCqUEVVYsU4-MdF-28" target="PJ0kJTCqUEVVYsU4-MdF-30" edge="1">
          <mxGeometry relative="1" as="geometry" />
        </mxCell>
        <mxCell id="PJ0kJTCqUEVVYsU4-MdF-32" value="Завершить&lt;div&gt;обслуживание&lt;/div&gt;" style="points=[[0.145,0.145,0],[0.5,0,0],[0.855,0.145,0],[1,0.5,0],[0.855,0.855,0],[0.5,1,0],[0.145,0.855,0],[0,0.5,0]];shape=mxgraph.bpmn.event;html=1;verticalLabelPosition=bottom;labelBackgroundColor=#ffffff;verticalAlign=top;align=center;perimeter=ellipsePerimeter;outlineConnect=0;aspect=fixed;outline=end;symbol=terminate2;" parent="9lMD8ba5U0IozYzaYxOx-8" vertex="1">
          <mxGeometry x="800" y="295" width="50" height="50" as="geometry" />
        </mxCell>
        <mxCell id="PJ0kJTCqUEVVYsU4-MdF-33" style="edgeStyle=orthogonalEdgeStyle;rounded=0;orthogonalLoop=1;jettySize=auto;html=1;exitX=0.5;exitY=1;exitDx=0;exitDy=0;exitPerimeter=0;entryX=0.5;entryY=0;entryDx=0;entryDy=0;entryPerimeter=0;" parent="9lMD8ba5U0IozYzaYxOx-8" source="PJ0kJTCqUEVVYsU4-MdF-30" target="PJ0kJTCqUEVVYsU4-MdF-32" edge="1">
          <mxGeometry relative="1" as="geometry" />
        </mxCell>
        <mxCell id="PJ0kJTCqUEVVYsU4-MdF-36" value="Клиент готов&amp;nbsp;&lt;div&gt;сменить&lt;br&gt;&lt;div&gt;критерии поиска&lt;/div&gt;&lt;/div&gt;" style="points=[[0.145,0.145,0],[0.5,0,0],[0.855,0.145,0],[1,0.5,0],[0.855,0.855,0],[0.5,1,0],[0.145,0.855,0],[0,0.5,0]];shape=mxgraph.bpmn.event;html=1;verticalLabelPosition=middle;labelBackgroundColor=#ffffff;verticalAlign=middle;align=right;perimeter=ellipsePerimeter;outlineConnect=0;aspect=fixed;outline=catching;symbol=conditional;labelPosition=left;" parent="9lMD8ba5U0IozYzaYxOx-8" vertex="1">
          <mxGeometry x="690" y="310" width="50" height="50" as="geometry" />
        </mxCell>
        <mxCell id="PJ0kJTCqUEVVYsU4-MdF-38" style="edgeStyle=orthogonalEdgeStyle;rounded=0;orthogonalLoop=1;jettySize=auto;html=1;exitX=0.5;exitY=1;exitDx=0;exitDy=0;exitPerimeter=0;entryX=0.5;entryY=0;entryDx=0;entryDy=0;entryPerimeter=0;" parent="9lMD8ba5U0IozYzaYxOx-8" source="PJ0kJTCqUEVVYsU4-MdF-28" target="PJ0kJTCqUEVVYsU4-MdF-36" edge="1">
          <mxGeometry relative="1" as="geometry" />
        </mxCell>
        <mxCell id="PJ0kJTCqUEVVYsU4-MdF-40" value="" style="points=[[0.25,0.25,0],[0.5,0,0],[0.75,0.25,0],[1,0.5,0],[0.75,0.75,0],[0.5,1,0],[0.25,0.75,0],[0,0.5,0]];shape=mxgraph.bpmn.gateway2;html=1;verticalLabelPosition=top;labelBackgroundColor=#ffffff;verticalAlign=bottom;align=center;perimeter=rhombusPerimeter;outlineConnect=0;outline=none;symbol=none;gwType=exclusive;labelPosition=center;" parent="9lMD8ba5U0IozYzaYxOx-8" vertex="1">
          <mxGeometry x="390" y="383" width="50" height="50" as="geometry" />
        </mxCell>
        <mxCell id="PJ0kJTCqUEVVYsU4-MdF-43" style="edgeStyle=orthogonalEdgeStyle;rounded=0;orthogonalLoop=1;jettySize=auto;html=1;exitX=0.5;exitY=1;exitDx=0;exitDy=0;exitPerimeter=0;entryX=0.5;entryY=0;entryDx=0;entryDy=0;entryPerimeter=0;" parent="9lMD8ba5U0IozYzaYxOx-8" source="PJ0kJTCqUEVVYsU4-MdF-40" target="PJ0kJTCqUEVVYsU4-MdF-10" edge="1">
          <mxGeometry relative="1" as="geometry" />
        </mxCell>
        <mxCell id="PJ0kJTCqUEVVYsU4-MdF-44" style="edgeStyle=orthogonalEdgeStyle;rounded=0;orthogonalLoop=1;jettySize=auto;html=1;exitX=0.5;exitY=1;exitDx=0;exitDy=0;exitPerimeter=0;entryX=1;entryY=0.5;entryDx=0;entryDy=0;entryPerimeter=0;" parent="9lMD8ba5U0IozYzaYxOx-8" source="PJ0kJTCqUEVVYsU4-MdF-36" target="PJ0kJTCqUEVVYsU4-MdF-40" edge="1">
          <mxGeometry relative="1" as="geometry" />
        </mxCell>
        <mxCell id="PJ0kJTCqUEVVYsU4-MdF-45" value="" style="points=[[0.25,0.25,0],[0.5,0,0],[0.75,0.25,0],[1,0.5,0],[0.75,0.75,0],[0.5,1,0],[0.25,0.75,0],[0,0.5,0]];shape=mxgraph.bpmn.gateway2;html=1;verticalLabelPosition=top;labelBackgroundColor=#ffffff;verticalAlign=bottom;align=center;perimeter=rhombusPerimeter;outlineConnect=0;outline=none;symbol=none;gwType=exclusive;labelPosition=center;" parent="9lMD8ba5U0IozYzaYxOx-8" vertex="1">
          <mxGeometry x="920" y="40" width="50" height="50" as="geometry" />
        </mxCell>
        <mxCell id="PJ0kJTCqUEVVYsU4-MdF-46" style="edgeStyle=orthogonalEdgeStyle;rounded=0;orthogonalLoop=1;jettySize=auto;html=1;exitX=1;exitY=0.5;exitDx=0;exitDy=0;exitPerimeter=0;entryX=0;entryY=0.5;entryDx=0;entryDy=0;entryPerimeter=0;" parent="9lMD8ba5U0IozYzaYxOx-8" source="PJ0kJTCqUEVVYsU4-MdF-45" target="PJ0kJTCqUEVVYsU4-MdF-14" edge="1">
          <mxGeometry relative="1" as="geometry" />
        </mxCell>
        <mxCell id="PJ0kJTCqUEVVYsU4-MdF-47" style="edgeStyle=orthogonalEdgeStyle;rounded=0;orthogonalLoop=1;jettySize=auto;html=1;exitX=1;exitY=0.5;exitDx=0;exitDy=0;exitPerimeter=0;entryX=0.5;entryY=1;entryDx=0;entryDy=0;entryPerimeter=0;" parent="9lMD8ba5U0IozYzaYxOx-8" source="PJ0kJTCqUEVVYsU4-MdF-10" target="PJ0kJTCqUEVVYsU4-MdF-45" edge="1">
          <mxGeometry relative="1" as="geometry" />
        </mxCell>
        <mxCell id="zPhImzooVI-DvbAVHhCg-1" value="Бронь возможна?" style="points=[[0.25,0.25,0],[0.5,0,0],[0.75,0.25,0],[1,0.5,0],[0.75,0.75,0],[0.5,1,0],[0.25,0.75,0],[0,0.5,0]];shape=mxgraph.bpmn.gateway2;html=1;verticalLabelPosition=top;labelBackgroundColor=#ffffff;verticalAlign=bottom;align=center;perimeter=rhombusPerimeter;outlineConnect=0;outline=none;symbol=none;gwType=exclusive;labelPosition=center;" vertex="1" parent="9lMD8ba5U0IozYzaYxOx-8">
          <mxGeometry x="1380" y="40" width="50" height="50" as="geometry" />
        </mxCell>
        <mxCell id="zPhImzooVI-DvbAVHhCg-2" style="edgeStyle=orthogonalEdgeStyle;rounded=0;orthogonalLoop=1;jettySize=auto;html=1;exitX=1;exitY=0.5;exitDx=0;exitDy=0;exitPerimeter=0;entryX=0;entryY=0.5;entryDx=0;entryDy=0;entryPerimeter=0;" edge="1" parent="9lMD8ba5U0IozYzaYxOx-8" source="PJ0kJTCqUEVVYsU4-MdF-26" target="zPhImzooVI-DvbAVHhCg-1">
          <mxGeometry relative="1" as="geometry" />
        </mxCell>
        <mxCell id="zPhImzooVI-DvbAVHhCg-3" value="" style="points=[[0.25,0.25,0],[0.5,0,0],[0.75,0.25,0],[1,0.5,0],[0.75,0.75,0],[0.5,1,0],[0.25,0.75,0],[0,0.5,0]];shape=mxgraph.bpmn.gateway2;html=1;verticalLabelPosition=bottom;labelBackgroundColor=#ffffff;verticalAlign=top;align=center;perimeter=rhombusPerimeter;outlineConnect=0;outline=none;symbol=none;gwType=parallel;" vertex="1" parent="9lMD8ba5U0IozYzaYxOx-8">
          <mxGeometry x="1570" y="120" width="50" height="50" as="geometry" />
        </mxCell>
        <mxCell id="zPhImzooVI-DvbAVHhCg-4" value="Да" style="edgeStyle=orthogonalEdgeStyle;rounded=0;orthogonalLoop=1;jettySize=auto;html=1;exitX=1;exitY=0.5;exitDx=0;exitDy=0;exitPerimeter=0;entryX=0;entryY=0.5;entryDx=0;entryDy=0;entryPerimeter=0;" edge="1" parent="9lMD8ba5U0IozYzaYxOx-8" source="zPhImzooVI-DvbAVHhCg-1" target="zPhImzooVI-DvbAVHhCg-3">
          <mxGeometry relative="1" as="geometry" />
        </mxCell>
        <mxCell id="zPhImzooVI-DvbAVHhCg-5" value="Оплата услуг" style="points=[[0.25,0,0],[0.5,0,0],[0.75,0,0],[1,0.25,0],[1,0.5,0],[1,0.75,0],[0.75,1,0],[0.5,1,0],[0.25,1,0],[0,0.75,0],[0,0.5,0],[0,0.25,0]];shape=mxgraph.bpmn.task;whiteSpace=wrap;rectStyle=rounded;size=10;html=1;container=1;expand=0;collapsible=0;taskMarker=abstract;isLoopSub=1;" vertex="1" parent="9lMD8ba5U0IozYzaYxOx-8">
          <mxGeometry x="1680" y="25" width="120" height="80" as="geometry" />
        </mxCell>
        <mxCell id="zPhImzooVI-DvbAVHhCg-7" style="edgeStyle=orthogonalEdgeStyle;rounded=0;orthogonalLoop=1;jettySize=auto;html=1;exitX=0.5;exitY=0;exitDx=0;exitDy=0;exitPerimeter=0;entryX=0;entryY=0.5;entryDx=0;entryDy=0;entryPerimeter=0;" edge="1" parent="9lMD8ba5U0IozYzaYxOx-8" source="zPhImzooVI-DvbAVHhCg-3" target="zPhImzooVI-DvbAVHhCg-5">
          <mxGeometry relative="1" as="geometry" />
        </mxCell>
        <mxCell id="zPhImzooVI-DvbAVHhCg-8" value="Отправить заявку в службу бронирования" style="points=[[0.25,0,0],[0.5,0,0],[0.75,0,0],[1,0.25,0],[1,0.5,0],[1,0.75,0],[0.75,1,0],[0.5,1,0],[0.25,1,0],[0,0.75,0],[0,0.5,0],[0,0.25,0]];shape=mxgraph.bpmn.task;whiteSpace=wrap;rectStyle=rounded;size=10;html=1;container=1;expand=0;collapsible=0;taskMarker=manual;" vertex="1" parent="9lMD8ba5U0IozYzaYxOx-8">
          <mxGeometry x="1680" y="170" width="120" height="80" as="geometry" />
        </mxCell>
        <mxCell id="zPhImzooVI-DvbAVHhCg-9" style="edgeStyle=orthogonalEdgeStyle;rounded=0;orthogonalLoop=1;jettySize=auto;html=1;exitX=0.5;exitY=1;exitDx=0;exitDy=0;exitPerimeter=0;entryX=0;entryY=0.5;entryDx=0;entryDy=0;entryPerimeter=0;" edge="1" parent="9lMD8ba5U0IozYzaYxOx-8" source="zPhImzooVI-DvbAVHhCg-3" target="zPhImzooVI-DvbAVHhCg-8">
          <mxGeometry relative="1" as="geometry" />
        </mxCell>
        <mxCell id="zPhImzooVI-DvbAVHhCg-16" value="Получены данные о брони" style="points=[[0.145,0.145,0],[0.5,0,0],[0.855,0.145,0],[1,0.5,0],[0.855,0.855,0],[0.5,1,0],[0.145,0.855,0],[0,0.5,0]];shape=mxgraph.bpmn.event;html=1;verticalLabelPosition=top;labelBackgroundColor=#ffffff;verticalAlign=bottom;align=center;perimeter=ellipsePerimeter;outlineConnect=0;aspect=fixed;outline=catching;symbol=message;labelPosition=center;" vertex="1" parent="9lMD8ba5U0IozYzaYxOx-8">
          <mxGeometry x="2033" y="185" width="50" height="50" as="geometry" />
        </mxCell>
        <mxCell id="zPhImzooVI-DvbAVHhCg-18" style="edgeStyle=orthogonalEdgeStyle;rounded=0;orthogonalLoop=1;jettySize=auto;html=1;exitX=1;exitY=0.5;exitDx=0;exitDy=0;exitPerimeter=0;entryX=0;entryY=0.5;entryDx=0;entryDy=0;entryPerimeter=0;" edge="1" parent="9lMD8ba5U0IozYzaYxOx-8" source="zPhImzooVI-DvbAVHhCg-8" target="zPhImzooVI-DvbAVHhCg-16">
          <mxGeometry relative="1" as="geometry" />
        </mxCell>
        <mxCell id="zPhImzooVI-DvbAVHhCg-19" value="" style="points=[[0.25,0.25,0],[0.5,0,0],[0.75,0.25,0],[1,0.5,0],[0.75,0.75,0],[0.5,1,0],[0.25,0.75,0],[0,0.5,0]];shape=mxgraph.bpmn.gateway2;html=1;verticalLabelPosition=top;labelBackgroundColor=#ffffff;verticalAlign=bottom;align=center;perimeter=rhombusPerimeter;outlineConnect=0;outline=none;symbol=none;gwType=exclusive;labelPosition=center;" vertex="1" parent="9lMD8ba5U0IozYzaYxOx-8">
          <mxGeometry x="2150" y="90" width="50" height="50" as="geometry" />
        </mxCell>
        <mxCell id="zPhImzooVI-DvbAVHhCg-20" style="edgeStyle=orthogonalEdgeStyle;rounded=0;orthogonalLoop=1;jettySize=auto;html=1;exitX=1;exitY=0.5;exitDx=0;exitDy=0;exitPerimeter=0;entryX=0.5;entryY=0;entryDx=0;entryDy=0;entryPerimeter=0;" edge="1" parent="9lMD8ba5U0IozYzaYxOx-8" source="zPhImzooVI-DvbAVHhCg-5" target="zPhImzooVI-DvbAVHhCg-19">
          <mxGeometry relative="1" as="geometry" />
        </mxCell>
        <mxCell id="zPhImzooVI-DvbAVHhCg-21" style="edgeStyle=orthogonalEdgeStyle;rounded=0;orthogonalLoop=1;jettySize=auto;html=1;exitX=1;exitY=0.5;exitDx=0;exitDy=0;exitPerimeter=0;entryX=0.5;entryY=1;entryDx=0;entryDy=0;entryPerimeter=0;" edge="1" parent="9lMD8ba5U0IozYzaYxOx-8" source="zPhImzooVI-DvbAVHhCg-16" target="zPhImzooVI-DvbAVHhCg-19">
          <mxGeometry relative="1" as="geometry" />
        </mxCell>
        <mxCell id="zPhImzooVI-DvbAVHhCg-22" value="Предоставить клиенту данные о поездке и путевке" style="points=[[0.25,0,0],[0.5,0,0],[0.75,0,0],[1,0.25,0],[1,0.5,0],[1,0.75,0],[0.75,1,0],[0.5,1,0],[0.25,1,0],[0,0.75,0],[0,0.5,0],[0,0.25,0]];shape=mxgraph.bpmn.task;whiteSpace=wrap;rectStyle=rounded;size=10;html=1;container=1;expand=0;collapsible=0;taskMarker=manual;" vertex="1" parent="9lMD8ba5U0IozYzaYxOx-8">
          <mxGeometry x="2280" y="75" width="120" height="80" as="geometry" />
        </mxCell>
        <mxCell id="zPhImzooVI-DvbAVHhCg-23" style="edgeStyle=orthogonalEdgeStyle;rounded=0;orthogonalLoop=1;jettySize=auto;html=1;exitX=1;exitY=0.5;exitDx=0;exitDy=0;exitPerimeter=0;entryX=0;entryY=0.5;entryDx=0;entryDy=0;entryPerimeter=0;" edge="1" parent="9lMD8ba5U0IozYzaYxOx-8" source="zPhImzooVI-DvbAVHhCg-19" target="zPhImzooVI-DvbAVHhCg-22">
          <mxGeometry relative="1" as="geometry" />
        </mxCell>
        <mxCell id="zPhImzooVI-DvbAVHhCg-24" value="Завершить&lt;div&gt;обслуживание&lt;/div&gt;" style="points=[[0.145,0.145,0],[0.5,0,0],[0.855,0.145,0],[1,0.5,0],[0.855,0.855,0],[0.5,1,0],[0.145,0.855,0],[0,0.5,0]];shape=mxgraph.bpmn.event;html=1;verticalLabelPosition=bottom;labelBackgroundColor=#ffffff;verticalAlign=top;align=center;perimeter=ellipsePerimeter;outlineConnect=0;aspect=fixed;outline=end;symbol=terminate2;" vertex="1" parent="9lMD8ba5U0IozYzaYxOx-8">
          <mxGeometry x="2880" y="90" width="50" height="50" as="geometry" />
        </mxCell>
        <mxCell id="zPhImzooVI-DvbAVHhCg-26" value="Подобрать другой&amp;nbsp;&lt;div&gt;вариант путевки?&lt;/div&gt;" style="points=[[0.25,0.25,0],[0.5,0,0],[0.75,0.25,0],[1,0.5,0],[0.75,0.75,0],[0.5,1,0],[0.25,0.75,0],[0,0.5,0]];shape=mxgraph.bpmn.gateway2;html=1;verticalLabelPosition=middle;labelBackgroundColor=#ffffff;verticalAlign=middle;align=right;perimeter=rhombusPerimeter;outlineConnect=0;outline=none;symbol=none;gwType=exclusive;labelPosition=left;" vertex="1" parent="9lMD8ba5U0IozYzaYxOx-8">
          <mxGeometry x="1380" y="240" width="50" height="50" as="geometry" />
        </mxCell>
        <mxCell id="zPhImzooVI-DvbAVHhCg-27" style="edgeStyle=orthogonalEdgeStyle;rounded=0;orthogonalLoop=1;jettySize=auto;html=1;exitX=0.5;exitY=1;exitDx=0;exitDy=0;exitPerimeter=0;entryX=0.5;entryY=0;entryDx=0;entryDy=0;entryPerimeter=0;" edge="1" parent="9lMD8ba5U0IozYzaYxOx-8" source="zPhImzooVI-DvbAVHhCg-1" target="zPhImzooVI-DvbAVHhCg-26">
          <mxGeometry relative="1" as="geometry" />
        </mxCell>
        <mxCell id="zPhImzooVI-DvbAVHhCg-28" value="Нет" style="edgeLabel;html=1;align=center;verticalAlign=middle;resizable=0;points=[];" vertex="1" connectable="0" parent="zPhImzooVI-DvbAVHhCg-27">
          <mxGeometry x="-0.1418" y="1" relative="1" as="geometry">
            <mxPoint as="offset" />
          </mxGeometry>
        </mxCell>
        <mxCell id="zPhImzooVI-DvbAVHhCg-32" style="edgeStyle=orthogonalEdgeStyle;rounded=0;orthogonalLoop=1;jettySize=auto;html=1;exitX=0.5;exitY=1;exitDx=0;exitDy=0;exitPerimeter=0;" edge="1" parent="9lMD8ba5U0IozYzaYxOx-8" source="zPhImzooVI-DvbAVHhCg-29" target="zPhImzooVI-DvbAVHhCg-30">
          <mxGeometry relative="1" as="geometry" />
        </mxCell>
        <mxCell id="zPhImzooVI-DvbAVHhCg-29" value="Клиент не согласен&amp;nbsp;&lt;div&gt;на подбор другого&amp;nbsp;&lt;/div&gt;&lt;div&gt;варианта&lt;/div&gt;" style="points=[[0.145,0.145,0],[0.5,0,0],[0.855,0.145,0],[1,0.5,0],[0.855,0.855,0],[0.5,1,0],[0.145,0.855,0],[0,0.5,0]];shape=mxgraph.bpmn.event;html=1;verticalLabelPosition=top;labelBackgroundColor=#ffffff;verticalAlign=bottom;align=center;perimeter=ellipsePerimeter;outlineConnect=0;aspect=fixed;outline=catching;symbol=conditional;labelPosition=center;" vertex="1" parent="9lMD8ba5U0IozYzaYxOx-8">
          <mxGeometry x="1480" y="240" width="50" height="50" as="geometry" />
        </mxCell>
        <mxCell id="zPhImzooVI-DvbAVHhCg-30" value="Завершить&lt;div&gt;обслуживание&lt;/div&gt;" style="points=[[0.145,0.145,0],[0.5,0,0],[0.855,0.145,0],[1,0.5,0],[0.855,0.855,0],[0.5,1,0],[0.145,0.855,0],[0,0.5,0]];shape=mxgraph.bpmn.event;html=1;verticalLabelPosition=bottom;labelBackgroundColor=#ffffff;verticalAlign=top;align=center;perimeter=ellipsePerimeter;outlineConnect=0;aspect=fixed;outline=end;symbol=terminate2;" vertex="1" parent="9lMD8ba5U0IozYzaYxOx-8">
          <mxGeometry x="1480" y="330" width="50" height="50" as="geometry" />
        </mxCell>
        <mxCell id="zPhImzooVI-DvbAVHhCg-31" style="edgeStyle=orthogonalEdgeStyle;rounded=0;orthogonalLoop=1;jettySize=auto;html=1;exitX=1;exitY=0.5;exitDx=0;exitDy=0;exitPerimeter=0;entryX=0;entryY=0.5;entryDx=0;entryDy=0;entryPerimeter=0;" edge="1" parent="9lMD8ba5U0IozYzaYxOx-8" source="zPhImzooVI-DvbAVHhCg-26" target="zPhImzooVI-DvbAVHhCg-29">
          <mxGeometry relative="1" as="geometry" />
        </mxCell>
        <mxCell id="zPhImzooVI-DvbAVHhCg-33" value="Клиент&lt;div&gt;согласен&amp;nbsp;&lt;div&gt;на подбор другого&amp;nbsp;&lt;/div&gt;&lt;div&gt;варианта&lt;/div&gt;&lt;/div&gt;" style="points=[[0.145,0.145,0],[0.5,0,0],[0.855,0.145,0],[1,0.5,0],[0.855,0.855,0],[0.5,1,0],[0.145,0.855,0],[0,0.5,0]];shape=mxgraph.bpmn.event;html=1;verticalLabelPosition=middle;labelBackgroundColor=#ffffff;verticalAlign=middle;align=right;perimeter=ellipsePerimeter;outlineConnect=0;aspect=fixed;outline=catching;symbol=conditional;labelPosition=left;" vertex="1" parent="9lMD8ba5U0IozYzaYxOx-8">
          <mxGeometry x="1380" y="333" width="50" height="50" as="geometry" />
        </mxCell>
        <mxCell id="zPhImzooVI-DvbAVHhCg-35" style="edgeStyle=orthogonalEdgeStyle;rounded=0;orthogonalLoop=1;jettySize=auto;html=1;exitX=0.5;exitY=1;exitDx=0;exitDy=0;exitPerimeter=0;entryX=0.5;entryY=0;entryDx=0;entryDy=0;entryPerimeter=0;" edge="1" parent="9lMD8ba5U0IozYzaYxOx-8" source="zPhImzooVI-DvbAVHhCg-26" target="zPhImzooVI-DvbAVHhCg-33">
          <mxGeometry relative="1" as="geometry" />
        </mxCell>
        <mxCell id="zPhImzooVI-DvbAVHhCg-36" style="edgeStyle=orthogonalEdgeStyle;rounded=0;orthogonalLoop=1;jettySize=auto;html=1;exitX=0.5;exitY=1;exitDx=0;exitDy=0;exitPerimeter=0;entryX=0;entryY=0.5;entryDx=0;entryDy=0;entryPerimeter=0;" edge="1" parent="9lMD8ba5U0IozYzaYxOx-8" source="zPhImzooVI-DvbAVHhCg-33" target="PJ0kJTCqUEVVYsU4-MdF-40">
          <mxGeometry relative="1" as="geometry">
            <Array as="points">
              <mxPoint x="1405" y="680" />
              <mxPoint x="310" y="680" />
              <mxPoint x="310" y="408" />
            </Array>
          </mxGeometry>
        </mxCell>
        <mxCell id="zPhImzooVI-DvbAVHhCg-37" value="" style="dashed=1;dashPattern=8 4;endArrow=blockThin;endFill=1;startArrow=oval;startFill=0;endSize=6;startSize=4;html=1;rounded=0;exitX=0.25;exitY=0.25;exitDx=0;exitDy=0;exitPerimeter=0;" edge="1" parent="9lMD8ba5U0IozYzaYxOx-8" source="9lMD8ba5U0IozYzaYxOx-19">
          <mxGeometry width="160" relative="1" as="geometry">
            <mxPoint x="190" y="180" as="sourcePoint" />
            <mxPoint x="403" y="-30" as="targetPoint" />
          </mxGeometry>
        </mxCell>
        <mxCell id="zPhImzooVI-DvbAVHhCg-39" value="" style="dashed=1;dashPattern=8 4;endArrow=blockThin;endFill=1;startArrow=oval;startFill=0;endSize=6;startSize=4;html=1;rounded=0;exitX=0.25;exitY=0.25;exitDx=0;exitDy=0;exitPerimeter=0;" edge="1" parent="9lMD8ba5U0IozYzaYxOx-8">
          <mxGeometry width="160" relative="1" as="geometry">
            <mxPoint x="702" y="53" as="sourcePoint" />
            <mxPoint x="702" y="-30" as="targetPoint" />
          </mxGeometry>
        </mxCell>
        <mxCell id="zPhImzooVI-DvbAVHhCg-40" value="" style="dashed=1;dashPattern=8 4;endArrow=blockThin;endFill=1;startArrow=oval;startFill=0;endSize=6;startSize=4;html=1;rounded=0;entryX=0.75;entryY=0.25;entryDx=0;entryDy=0;entryPerimeter=0;" edge="1" parent="9lMD8ba5U0IozYzaYxOx-8">
          <mxGeometry width="160" relative="1" as="geometry">
            <mxPoint x="727" y="-30" as="sourcePoint" />
            <mxPoint x="727" y="53" as="targetPoint" />
          </mxGeometry>
        </mxCell>
        <mxCell id="zPhImzooVI-DvbAVHhCg-42" value="" style="dashed=1;dashPattern=8 4;endArrow=blockThin;endFill=1;startArrow=oval;startFill=0;endSize=6;startSize=4;html=1;rounded=0;exitX=0.25;exitY=0.25;exitDx=0;exitDy=0;exitPerimeter=0;" edge="1" parent="9lMD8ba5U0IozYzaYxOx-8" source="zPhImzooVI-DvbAVHhCg-26">
          <mxGeometry width="160" relative="1" as="geometry">
            <mxPoint x="1360" y="213" as="sourcePoint" />
            <mxPoint x="1350" y="-30" as="targetPoint" />
            <Array as="points">
              <mxPoint x="1350" y="230" />
            </Array>
          </mxGeometry>
        </mxCell>
        <mxCell id="zPhImzooVI-DvbAVHhCg-44" value="" style="dashed=1;dashPattern=8 4;endArrow=blockThin;endFill=1;startArrow=oval;startFill=0;endSize=6;startSize=4;html=1;rounded=0;exitX=0.25;exitY=0.25;exitDx=0;exitDy=0;exitPerimeter=0;" edge="1" parent="9lMD8ba5U0IozYzaYxOx-8">
          <mxGeometry width="160" relative="1" as="geometry">
            <mxPoint x="2339.5" y="75" as="sourcePoint" />
            <mxPoint x="2340" y="-30" as="targetPoint" />
          </mxGeometry>
        </mxCell>
        <mxCell id="zPhImzooVI-DvbAVHhCg-50" value="Неделя до поездки" style="points=[[0.145,0.145,0],[0.5,0,0],[0.855,0.145,0],[1,0.5,0],[0.855,0.855,0],[0.5,1,0],[0.145,0.855,0],[0,0.5,0]];shape=mxgraph.bpmn.event;html=1;verticalLabelPosition=bottom;labelBackgroundColor=#ffffff;verticalAlign=top;align=center;perimeter=ellipsePerimeter;outlineConnect=0;aspect=fixed;outline=catching;symbol=timer;" vertex="1" parent="9lMD8ba5U0IozYzaYxOx-8">
          <mxGeometry x="2480" y="90" width="50" height="50" as="geometry" />
        </mxCell>
        <mxCell id="zPhImzooVI-DvbAVHhCg-51" style="edgeStyle=orthogonalEdgeStyle;rounded=0;orthogonalLoop=1;jettySize=auto;html=1;exitX=1;exitY=0.5;exitDx=0;exitDy=0;exitPerimeter=0;entryX=0;entryY=0.5;entryDx=0;entryDy=0;entryPerimeter=0;" edge="1" parent="9lMD8ba5U0IozYzaYxOx-8" source="zPhImzooVI-DvbAVHhCg-22" target="zPhImzooVI-DvbAVHhCg-50">
          <mxGeometry relative="1" as="geometry" />
        </mxCell>
        <mxCell id="zPhImzooVI-DvbAVHhCg-53" value="Напомнить клиенту о поездке" style="points=[[0.25,0,0],[0.5,0,0],[0.75,0,0],[1,0.25,0],[1,0.5,0],[1,0.75,0],[0.75,1,0],[0.5,1,0],[0.25,1,0],[0,0.75,0],[0,0.5,0],[0,0.25,0]];shape=mxgraph.bpmn.task;whiteSpace=wrap;rectStyle=rounded;size=10;html=1;container=1;expand=0;collapsible=0;taskMarker=manual;" vertex="1" parent="9lMD8ba5U0IozYzaYxOx-8">
          <mxGeometry x="2620" y="75" width="120" height="80" as="geometry" />
        </mxCell>
        <mxCell id="zPhImzooVI-DvbAVHhCg-54" style="edgeStyle=orthogonalEdgeStyle;rounded=0;orthogonalLoop=1;jettySize=auto;html=1;exitX=1;exitY=0.5;exitDx=0;exitDy=0;exitPerimeter=0;entryX=0;entryY=0.5;entryDx=0;entryDy=0;entryPerimeter=0;" edge="1" parent="9lMD8ba5U0IozYzaYxOx-8" source="zPhImzooVI-DvbAVHhCg-50" target="zPhImzooVI-DvbAVHhCg-53">
          <mxGeometry relative="1" as="geometry" />
        </mxCell>
        <mxCell id="zPhImzooVI-DvbAVHhCg-55" style="edgeStyle=orthogonalEdgeStyle;rounded=0;orthogonalLoop=1;jettySize=auto;html=1;exitX=1;exitY=0.5;exitDx=0;exitDy=0;exitPerimeter=0;entryX=0;entryY=0.5;entryDx=0;entryDy=0;entryPerimeter=0;" edge="1" parent="9lMD8ba5U0IozYzaYxOx-8" source="zPhImzooVI-DvbAVHhCg-53" target="zPhImzooVI-DvbAVHhCg-24">
          <mxGeometry relative="1" as="geometry" />
        </mxCell>
        <mxCell id="zPhImzooVI-DvbAVHhCg-56" value="" style="dashed=1;dashPattern=8 4;endArrow=blockThin;endFill=1;startArrow=oval;startFill=0;endSize=6;startSize=4;html=1;rounded=0;exitX=0.25;exitY=0.25;exitDx=0;exitDy=0;exitPerimeter=0;" edge="1" parent="9lMD8ba5U0IozYzaYxOx-8">
          <mxGeometry width="160" relative="1" as="geometry">
            <mxPoint x="2660" y="75" as="sourcePoint" />
            <mxPoint x="2660.5" y="-30" as="targetPoint" />
          </mxGeometry>
        </mxCell>
        <mxCell id="zPhImzooVI-DvbAVHhCg-57" value="" style="dashed=1;dashPattern=8 4;endArrow=blockThin;endFill=1;startArrow=oval;startFill=0;endSize=6;startSize=4;html=1;rounded=0;exitX=0.25;exitY=0.25;exitDx=0;exitDy=0;exitPerimeter=0;" edge="1" parent="9lMD8ba5U0IozYzaYxOx-8">
          <mxGeometry width="160" relative="1" as="geometry">
            <mxPoint x="2710" y="-30" as="sourcePoint" />
            <mxPoint x="2710" y="80" as="targetPoint" />
          </mxGeometry>
        </mxCell>
        <mxCell id="9lMD8ba5U0IozYzaYxOx-9" value="Служба бронирования" style="swimlane;html=1;startSize=20;horizontal=0;" parent="9lMD8ba5U0IozYzaYxOx-7" vertex="1">
          <mxGeometry x="20" y="700" width="3030" height="170" as="geometry" />
        </mxCell>
        <mxCell id="PJ0kJTCqUEVVYsU4-MdF-17" value="Получен запрос&lt;div&gt;о возможности&lt;/div&gt;&lt;div&gt;бронирования&amp;nbsp;&lt;/div&gt;&lt;div&gt;путевки&lt;/div&gt;" style="points=[[0.145,0.145,0],[0.5,0,0],[0.855,0.145,0],[1,0.5,0],[0.855,0.855,0],[0.5,1,0],[0.145,0.855,0],[0,0.5,0]];shape=mxgraph.bpmn.event;html=1;verticalLabelPosition=bottom;labelBackgroundColor=#ffffff;verticalAlign=top;align=center;perimeter=ellipsePerimeter;outlineConnect=0;aspect=fixed;outline=catching;symbol=message;" parent="9lMD8ba5U0IozYzaYxOx-9" vertex="1">
          <mxGeometry x="1024" y="45" width="50" height="50" as="geometry" />
        </mxCell>
        <mxCell id="PJ0kJTCqUEVVYsU4-MdF-24" value="&lt;div&gt;&lt;span style=&quot;background-color: initial;&quot;&gt;Отправить информацию о возможности бронирования&lt;/span&gt;&lt;br&gt;&lt;/div&gt;" style="points=[[0.25,0,0],[0.5,0,0],[0.75,0,0],[1,0.25,0],[1,0.5,0],[1,0.75,0],[0.75,1,0],[0.5,1,0],[0.25,1,0],[0,0.75,0],[0,0.5,0],[0,0.25,0]];shape=mxgraph.bpmn.task;whiteSpace=wrap;rectStyle=rounded;size=10;html=1;container=1;expand=0;collapsible=0;taskMarker=manual;" parent="9lMD8ba5U0IozYzaYxOx-9" vertex="1">
          <mxGeometry x="1330" y="30" width="120" height="80" as="geometry" />
        </mxCell>
        <mxCell id="zPhImzooVI-DvbAVHhCg-10" value="Получена заявка&lt;div&gt;на бронироваие&lt;/div&gt;" style="points=[[0.145,0.145,0],[0.5,0,0],[0.855,0.145,0],[1,0.5,0],[0.855,0.855,0],[0.5,1,0],[0.145,0.855,0],[0,0.5,0]];shape=mxgraph.bpmn.event;html=1;verticalLabelPosition=bottom;labelBackgroundColor=#ffffff;verticalAlign=top;align=center;perimeter=ellipsePerimeter;outlineConnect=0;aspect=fixed;outline=catching;symbol=message;" vertex="1" parent="9lMD8ba5U0IozYzaYxOx-9">
          <mxGeometry x="1715" y="30" width="50" height="50" as="geometry" />
        </mxCell>
        <mxCell id="zPhImzooVI-DvbAVHhCg-12" value="Бронирование" style="points=[[0.25,0,0],[0.5,0,0],[0.75,0,0],[1,0.25,0],[1,0.5,0],[1,0.75,0],[0.75,1,0],[0.5,1,0],[0.25,1,0],[0,0.75,0],[0,0.5,0],[0,0.25,0]];shape=mxgraph.bpmn.task;whiteSpace=wrap;rectStyle=rounded;size=10;html=1;container=1;expand=0;collapsible=0;taskMarker=abstract;isLoopSub=1;" vertex="1" parent="9lMD8ba5U0IozYzaYxOx-9">
          <mxGeometry x="1830" y="15" width="120" height="80" as="geometry" />
        </mxCell>
        <mxCell id="zPhImzooVI-DvbAVHhCg-13" style="edgeStyle=orthogonalEdgeStyle;rounded=0;orthogonalLoop=1;jettySize=auto;html=1;exitX=1;exitY=0.5;exitDx=0;exitDy=0;exitPerimeter=0;entryX=0;entryY=0.5;entryDx=0;entryDy=0;entryPerimeter=0;" edge="1" parent="9lMD8ba5U0IozYzaYxOx-9" source="zPhImzooVI-DvbAVHhCg-10" target="zPhImzooVI-DvbAVHhCg-12">
          <mxGeometry relative="1" as="geometry" />
        </mxCell>
        <mxCell id="zPhImzooVI-DvbAVHhCg-14" value="&lt;div&gt;&lt;span style=&quot;background-color: initial;&quot;&gt;Отправить данные о брони&lt;/span&gt;&lt;br&gt;&lt;/div&gt;" style="points=[[0.25,0,0],[0.5,0,0],[0.75,0,0],[1,0.25,0],[1,0.5,0],[1,0.75,0],[0.75,1,0],[0.5,1,0],[0.25,1,0],[0,0.75,0],[0,0.5,0],[0,0.25,0]];shape=mxgraph.bpmn.task;whiteSpace=wrap;rectStyle=rounded;size=10;html=1;container=1;expand=0;collapsible=0;taskMarker=manual;" vertex="1" parent="9lMD8ba5U0IozYzaYxOx-9">
          <mxGeometry x="1998" y="15" width="120" height="80" as="geometry" />
        </mxCell>
        <mxCell id="zPhImzooVI-DvbAVHhCg-15" style="edgeStyle=orthogonalEdgeStyle;rounded=0;orthogonalLoop=1;jettySize=auto;html=1;exitX=1;exitY=0.5;exitDx=0;exitDy=0;exitPerimeter=0;entryX=0;entryY=0.5;entryDx=0;entryDy=0;entryPerimeter=0;" edge="1" parent="9lMD8ba5U0IozYzaYxOx-9" source="zPhImzooVI-DvbAVHhCg-12" target="zPhImzooVI-DvbAVHhCg-14">
          <mxGeometry relative="1" as="geometry" />
        </mxCell>
        <mxCell id="zPhImzooVI-DvbAVHhCg-62" style="edgeStyle=orthogonalEdgeStyle;rounded=0;orthogonalLoop=1;jettySize=auto;html=1;exitX=1;exitY=0.5;exitDx=0;exitDy=0;exitPerimeter=0;" edge="1" parent="9lMD8ba5U0IozYzaYxOx-9" source="zPhImzooVI-DvbAVHhCg-60" target="PJ0kJTCqUEVVYsU4-MdF-24">
          <mxGeometry relative="1" as="geometry" />
        </mxCell>
        <mxCell id="zPhImzooVI-DvbAVHhCg-60" value="Предварительное бронирование (проверка возможности)" style="points=[[0.25,0,0],[0.5,0,0],[0.75,0,0],[1,0.25,0],[1,0.5,0],[1,0.75,0],[0.75,1,0],[0.5,1,0],[0.25,1,0],[0,0.75,0],[0,0.5,0],[0,0.25,0]];shape=mxgraph.bpmn.task;whiteSpace=wrap;rectStyle=rounded;size=10;html=1;container=1;expand=0;collapsible=0;taskMarker=abstract;isLoopSub=1;" vertex="1" parent="9lMD8ba5U0IozYzaYxOx-9">
          <mxGeometry x="1150" y="30" width="120" height="80" as="geometry" />
        </mxCell>
        <mxCell id="zPhImzooVI-DvbAVHhCg-61" style="edgeStyle=orthogonalEdgeStyle;rounded=0;orthogonalLoop=1;jettySize=auto;html=1;exitX=1;exitY=0.5;exitDx=0;exitDy=0;exitPerimeter=0;entryX=0;entryY=0.5;entryDx=0;entryDy=0;entryPerimeter=0;" edge="1" parent="9lMD8ba5U0IozYzaYxOx-9" source="PJ0kJTCqUEVVYsU4-MdF-17" target="zPhImzooVI-DvbAVHhCg-60">
          <mxGeometry relative="1" as="geometry" />
        </mxCell>
        <mxCell id="PJ0kJTCqUEVVYsU4-MdF-20" style="edgeStyle=orthogonalEdgeStyle;rounded=0;orthogonalLoop=1;jettySize=auto;html=1;exitX=0.5;exitY=1;exitDx=0;exitDy=0;exitPerimeter=0;" parent="9lMD8ba5U0IozYzaYxOx-7" source="PJ0kJTCqUEVVYsU4-MdF-14" target="PJ0kJTCqUEVVYsU4-MdF-17" edge="1">
          <mxGeometry relative="1" as="geometry" />
        </mxCell>
        <mxCell id="PJ0kJTCqUEVVYsU4-MdF-27" style="edgeStyle=orthogonalEdgeStyle;rounded=0;orthogonalLoop=1;jettySize=auto;html=1;exitX=0.5;exitY=0;exitDx=0;exitDy=0;exitPerimeter=0;entryX=0.5;entryY=1;entryDx=0;entryDy=0;entryPerimeter=0;" parent="9lMD8ba5U0IozYzaYxOx-7" source="PJ0kJTCqUEVVYsU4-MdF-24" target="PJ0kJTCqUEVVYsU4-MdF-26" edge="1">
          <mxGeometry relative="1" as="geometry">
            <Array as="points">
              <mxPoint x="1410" y="530" />
              <mxPoint x="1260" y="530" />
            </Array>
          </mxGeometry>
        </mxCell>
        <mxCell id="zPhImzooVI-DvbAVHhCg-11" style="edgeStyle=orthogonalEdgeStyle;rounded=0;orthogonalLoop=1;jettySize=auto;html=1;exitX=0.5;exitY=1;exitDx=0;exitDy=0;exitPerimeter=0;entryX=0.5;entryY=0;entryDx=0;entryDy=0;entryPerimeter=0;" edge="1" parent="9lMD8ba5U0IozYzaYxOx-7" source="zPhImzooVI-DvbAVHhCg-8" target="zPhImzooVI-DvbAVHhCg-10">
          <mxGeometry relative="1" as="geometry" />
        </mxCell>
        <mxCell id="zPhImzooVI-DvbAVHhCg-17" style="edgeStyle=orthogonalEdgeStyle;rounded=0;orthogonalLoop=1;jettySize=auto;html=1;exitX=0.5;exitY=0;exitDx=0;exitDy=0;exitPerimeter=0;" edge="1" parent="9lMD8ba5U0IozYzaYxOx-7" source="zPhImzooVI-DvbAVHhCg-14" target="zPhImzooVI-DvbAVHhCg-16">
          <mxGeometry relative="1" as="geometry" />
        </mxCell>
        <mxCell id="9lMD8ba5U0IozYzaYxOx-15" style="edgeStyle=orthogonalEdgeStyle;rounded=0;orthogonalLoop=1;jettySize=auto;html=1;exitX=0.5;exitY=1;exitDx=0;exitDy=0;exitPerimeter=0;entryX=0.5;entryY=0;entryDx=0;entryDy=0;entryPerimeter=0;" parent="1" source="9lMD8ba5U0IozYzaYxOx-12" target="9lMD8ba5U0IozYzaYxOx-14" edge="1">
          <mxGeometry relative="1" as="geometry" />
        </mxCell>
        <mxCell id="zPhImzooVI-DvbAVHhCg-38" value="" style="dashed=1;dashPattern=8 4;endArrow=blockThin;endFill=1;startArrow=oval;startFill=0;endSize=6;startSize=4;html=1;rounded=0;entryX=0.75;entryY=0.25;entryDx=0;entryDy=0;entryPerimeter=0;" edge="1" parent="1" target="9lMD8ba5U0IozYzaYxOx-19">
          <mxGeometry width="160" relative="1" as="geometry">
            <mxPoint x="498" y="210" as="sourcePoint" />
            <mxPoint x="483" y="220" as="targetPoint" />
          </mxGeometry>
        </mxCell>
        <mxCell id="zPhImzooVI-DvbAVHhCg-43" value="" style="dashed=1;dashPattern=8 4;endArrow=blockThin;endFill=1;startArrow=oval;startFill=0;endSize=6;startSize=4;html=1;rounded=0;entryX=0.75;entryY=0.25;entryDx=0;entryDy=0;entryPerimeter=0;" edge="1" parent="1" target="zPhImzooVI-DvbAVHhCg-26">
          <mxGeometry width="160" relative="1" as="geometry">
            <mxPoint x="1530" y="210" as="sourcePoint" />
            <mxPoint x="1530" y="293" as="targetPoint" />
          </mxGeometry>
        </mxCell>
        <mxCell id="zPhImzooVI-DvbAVHhCg-45" value="Предварительное бронирование (проверка возможности)" style="swimlane;html=1;startSize=30;fontStyle=0;collapsible=0;horizontal=0;swimlaneLine=1;swimlaneFillColor=#ffffff;strokeWidth=2;whiteSpace=wrap;" vertex="1" parent="1">
          <mxGeometry x="50" y="1170" width="1650" height="300" as="geometry" />
        </mxCell>
        <mxCell id="zPhImzooVI-DvbAVHhCg-48" style="edgeStyle=orthogonalEdgeStyle;rounded=0;orthogonalLoop=1;jettySize=auto;html=1;exitX=1;exitY=0.5;exitDx=0;exitDy=0;exitPerimeter=0;" edge="1" parent="zPhImzooVI-DvbAVHhCg-45" source="zPhImzooVI-DvbAVHhCg-46">
          <mxGeometry relative="1" as="geometry">
            <mxPoint x="190" y="105" as="targetPoint" />
          </mxGeometry>
        </mxCell>
        <mxCell id="zPhImzooVI-DvbAVHhCg-46" value="Получен запрос&lt;div&gt;о возможности&lt;/div&gt;&lt;div&gt;бронирования&amp;nbsp;&lt;/div&gt;&lt;div&gt;путевки&lt;/div&gt;" style="points=[[0.145,0.145,0],[0.5,0,0],[0.855,0.145,0],[1,0.5,0],[0.855,0.855,0],[0.5,1,0],[0.145,0.855,0],[0,0.5,0]];shape=mxgraph.bpmn.event;html=1;verticalLabelPosition=bottom;labelBackgroundColor=#ffffff;verticalAlign=top;align=center;perimeter=ellipsePerimeter;outlineConnect=0;aspect=fixed;outline=standard;symbol=general;" vertex="1" parent="zPhImzooVI-DvbAVHhCg-45">
          <mxGeometry x="60" y="80" width="50" height="50" as="geometry" />
        </mxCell>
        <mxCell id="zPhImzooVI-DvbAVHhCg-65" value="&lt;div&gt;Обработать полученный ответ&lt;/div&gt;" style="points=[[0.25,0,0],[0.5,0,0],[0.75,0,0],[1,0.25,0],[1,0.5,0],[1,0.75,0],[0.75,1,0],[0.5,1,0],[0.25,1,0],[0,0.75,0],[0,0.5,0],[0,0.25,0]];shape=mxgraph.bpmn.task;whiteSpace=wrap;rectStyle=rounded;size=10;html=1;container=1;expand=0;collapsible=0;taskMarker=manual;" vertex="1" parent="zPhImzooVI-DvbAVHhCg-45">
          <mxGeometry x="380" y="65" width="120" height="80" as="geometry" />
        </mxCell>
        <mxCell id="zPhImzooVI-DvbAVHhCg-66" value="Отправить заявку в отель/оператору" style="points=[[0.25,0,0],[0.5,0,0],[0.75,0,0],[1,0.25,0],[1,0.5,0],[1,0.75,0],[0.75,1,0],[0.5,1,0],[0.25,1,0],[0,0.75,0],[0,0.5,0],[0,0.25,0]];shape=mxgraph.bpmn.task;whiteSpace=wrap;rectStyle=rounded;size=10;html=1;container=1;expand=0;collapsible=0;taskMarker=service;" vertex="1" parent="zPhImzooVI-DvbAVHhCg-45">
          <mxGeometry x="190" y="65" width="120" height="80" as="geometry" />
        </mxCell>
        <mxCell id="zPhImzooVI-DvbAVHhCg-67" style="edgeStyle=orthogonalEdgeStyle;rounded=0;orthogonalLoop=1;jettySize=auto;html=1;exitX=1;exitY=0.5;exitDx=0;exitDy=0;exitPerimeter=0;entryX=0;entryY=0.5;entryDx=0;entryDy=0;entryPerimeter=0;" edge="1" parent="zPhImzooVI-DvbAVHhCg-45" source="zPhImzooVI-DvbAVHhCg-66" target="zPhImzooVI-DvbAVHhCg-65">
          <mxGeometry relative="1" as="geometry" />
        </mxCell>
        <mxCell id="zPhImzooVI-DvbAVHhCg-68" value="Бронирование&amp;nbsp;&lt;div&gt;возможно?&lt;/div&gt;" style="points=[[0.25,0.25,0],[0.5,0,0],[0.75,0.25,0],[1,0.5,0],[0.75,0.75,0],[0.5,1,0],[0.25,0.75,0],[0,0.5,0]];shape=mxgraph.bpmn.gateway2;html=1;verticalLabelPosition=top;labelBackgroundColor=#ffffff;verticalAlign=bottom;align=center;perimeter=rhombusPerimeter;outlineConnect=0;outline=none;symbol=none;gwType=exclusive;labelPosition=center;" vertex="1" parent="zPhImzooVI-DvbAVHhCg-45">
          <mxGeometry x="610" y="80" width="50" height="50" as="geometry" />
        </mxCell>
        <mxCell id="zPhImzooVI-DvbAVHhCg-69" style="edgeStyle=orthogonalEdgeStyle;rounded=0;orthogonalLoop=1;jettySize=auto;html=1;exitX=1;exitY=0.5;exitDx=0;exitDy=0;exitPerimeter=0;entryX=0;entryY=0.5;entryDx=0;entryDy=0;entryPerimeter=0;" edge="1" parent="zPhImzooVI-DvbAVHhCg-45" source="zPhImzooVI-DvbAVHhCg-65" target="zPhImzooVI-DvbAVHhCg-68">
          <mxGeometry relative="1" as="geometry" />
        </mxCell>
        <mxCell id="zPhImzooVI-DvbAVHhCg-70" value="&lt;div&gt;Подготовить ответ с деталями бронирования&lt;/div&gt;" style="points=[[0.25,0,0],[0.5,0,0],[0.75,0,0],[1,0.25,0],[1,0.5,0],[1,0.75,0],[0.75,1,0],[0.5,1,0],[0.25,1,0],[0,0.75,0],[0,0.5,0],[0,0.25,0]];shape=mxgraph.bpmn.task;whiteSpace=wrap;rectStyle=rounded;size=10;html=1;container=1;expand=0;collapsible=0;taskMarker=manual;" vertex="1" parent="zPhImzooVI-DvbAVHhCg-45">
          <mxGeometry x="777" y="65" width="120" height="80" as="geometry" />
        </mxCell>
        <mxCell id="zPhImzooVI-DvbAVHhCg-72" style="edgeStyle=orthogonalEdgeStyle;rounded=0;orthogonalLoop=1;jettySize=auto;html=1;exitX=1;exitY=0.5;exitDx=0;exitDy=0;exitPerimeter=0;entryX=0;entryY=0.5;entryDx=0;entryDy=0;entryPerimeter=0;" edge="1" parent="zPhImzooVI-DvbAVHhCg-45" source="zPhImzooVI-DvbAVHhCg-68" target="zPhImzooVI-DvbAVHhCg-70">
          <mxGeometry relative="1" as="geometry" />
        </mxCell>
        <mxCell id="zPhImzooVI-DvbAVHhCg-73" value="Да" style="edgeLabel;html=1;align=center;verticalAlign=middle;resizable=0;points=[];" vertex="1" connectable="0" parent="zPhImzooVI-DvbAVHhCg-72">
          <mxGeometry x="-0.2012" y="1" relative="1" as="geometry">
            <mxPoint as="offset" />
          </mxGeometry>
        </mxCell>
        <mxCell id="zPhImzooVI-DvbAVHhCg-74" value="&lt;div&gt;Отправить ответ&lt;br&gt;менеджеру по туризму&lt;/div&gt;" style="points=[[0.25,0,0],[0.5,0,0],[0.75,0,0],[1,0.25,0],[1,0.5,0],[1,0.75,0],[0.75,1,0],[0.5,1,0],[0.25,1,0],[0,0.75,0],[0,0.5,0],[0,0.25,0]];shape=mxgraph.bpmn.task;whiteSpace=wrap;rectStyle=rounded;size=10;html=1;container=1;expand=0;collapsible=0;taskMarker=manual;" vertex="1" parent="zPhImzooVI-DvbAVHhCg-45">
          <mxGeometry x="1300" y="120" width="120" height="80" as="geometry" />
        </mxCell>
        <mxCell id="zPhImzooVI-DvbAVHhCg-80" style="edgeStyle=orthogonalEdgeStyle;rounded=0;orthogonalLoop=1;jettySize=auto;html=1;exitX=1;exitY=0.5;exitDx=0;exitDy=0;exitPerimeter=0;" edge="1" parent="zPhImzooVI-DvbAVHhCg-45" source="zPhImzooVI-DvbAVHhCg-76" target="zPhImzooVI-DvbAVHhCg-79">
          <mxGeometry relative="1" as="geometry" />
        </mxCell>
        <mxCell id="zPhImzooVI-DvbAVHhCg-76" value="Запросить доступные варианты на эти же даты" style="points=[[0.25,0,0],[0.5,0,0],[0.75,0,0],[1,0.25,0],[1,0.5,0],[1,0.75,0],[0.75,1,0],[0.5,1,0],[0.25,1,0],[0,0.75,0],[0,0.5,0],[0,0.25,0]];shape=mxgraph.bpmn.task;whiteSpace=wrap;rectStyle=rounded;size=10;html=1;container=1;expand=0;collapsible=0;taskMarker=manual;" vertex="1" parent="zPhImzooVI-DvbAVHhCg-45">
          <mxGeometry x="777" y="170" width="120" height="80" as="geometry" />
        </mxCell>
        <mxCell id="zPhImzooVI-DvbAVHhCg-77" style="edgeStyle=orthogonalEdgeStyle;rounded=0;orthogonalLoop=1;jettySize=auto;html=1;exitX=0.5;exitY=1;exitDx=0;exitDy=0;exitPerimeter=0;entryX=0;entryY=0.5;entryDx=0;entryDy=0;entryPerimeter=0;" edge="1" parent="zPhImzooVI-DvbAVHhCg-45" source="zPhImzooVI-DvbAVHhCg-68" target="zPhImzooVI-DvbAVHhCg-76">
          <mxGeometry relative="1" as="geometry" />
        </mxCell>
        <mxCell id="zPhImzooVI-DvbAVHhCg-78" value="Нет" style="edgeLabel;html=1;align=center;verticalAlign=middle;resizable=0;points=[];" vertex="1" connectable="0" parent="zPhImzooVI-DvbAVHhCg-77">
          <mxGeometry x="0.3113" y="3" relative="1" as="geometry">
            <mxPoint as="offset" />
          </mxGeometry>
        </mxCell>
        <mxCell id="zPhImzooVI-DvbAVHhCg-79" value="Подготовить ответ с отказом и доступными альтернативами" style="points=[[0.25,0,0],[0.5,0,0],[0.75,0,0],[1,0.25,0],[1,0.5,0],[1,0.75,0],[0.75,1,0],[0.5,1,0],[0.25,1,0],[0,0.75,0],[0,0.5,0],[0,0.25,0]];shape=mxgraph.bpmn.task;whiteSpace=wrap;rectStyle=rounded;size=10;html=1;container=1;expand=0;collapsible=0;taskMarker=manual;" vertex="1" parent="zPhImzooVI-DvbAVHhCg-45">
          <mxGeometry x="970" y="170" width="120" height="80" as="geometry" />
        </mxCell>
        <mxCell id="zPhImzooVI-DvbAVHhCg-85" style="edgeStyle=orthogonalEdgeStyle;rounded=0;orthogonalLoop=1;jettySize=auto;html=1;exitX=1;exitY=0.5;exitDx=0;exitDy=0;exitPerimeter=0;" edge="1" parent="zPhImzooVI-DvbAVHhCg-45" source="zPhImzooVI-DvbAVHhCg-81" target="zPhImzooVI-DvbAVHhCg-74">
          <mxGeometry relative="1" as="geometry" />
        </mxCell>
        <mxCell id="zPhImzooVI-DvbAVHhCg-81" value="" style="points=[[0.25,0.25,0],[0.5,0,0],[0.75,0.25,0],[1,0.5,0],[0.75,0.75,0],[0.5,1,0],[0.25,0.75,0],[0,0.5,0]];shape=mxgraph.bpmn.gateway2;html=1;verticalLabelPosition=top;labelBackgroundColor=#ffffff;verticalAlign=bottom;align=center;perimeter=rhombusPerimeter;outlineConnect=0;outline=none;symbol=none;gwType=exclusive;labelPosition=center;" vertex="1" parent="zPhImzooVI-DvbAVHhCg-45">
          <mxGeometry x="1150" y="135" width="50" height="50" as="geometry" />
        </mxCell>
        <mxCell id="zPhImzooVI-DvbAVHhCg-83" style="edgeStyle=orthogonalEdgeStyle;rounded=0;orthogonalLoop=1;jettySize=auto;html=1;exitX=1;exitY=0.5;exitDx=0;exitDy=0;exitPerimeter=0;entryX=0.5;entryY=0;entryDx=0;entryDy=0;entryPerimeter=0;" edge="1" parent="zPhImzooVI-DvbAVHhCg-45" source="zPhImzooVI-DvbAVHhCg-70" target="zPhImzooVI-DvbAVHhCg-81">
          <mxGeometry relative="1" as="geometry" />
        </mxCell>
        <mxCell id="zPhImzooVI-DvbAVHhCg-84" style="edgeStyle=orthogonalEdgeStyle;rounded=0;orthogonalLoop=1;jettySize=auto;html=1;exitX=1;exitY=0.5;exitDx=0;exitDy=0;exitPerimeter=0;entryX=0.5;entryY=1;entryDx=0;entryDy=0;entryPerimeter=0;" edge="1" parent="zPhImzooVI-DvbAVHhCg-45" source="zPhImzooVI-DvbAVHhCg-79" target="zPhImzooVI-DvbAVHhCg-81">
          <mxGeometry relative="1" as="geometry" />
        </mxCell>
        <mxCell id="zPhImzooVI-DvbAVHhCg-86" value="Информация&lt;div&gt;отправлена&lt;/div&gt;" style="points=[[0.145,0.145,0],[0.5,0,0],[0.855,0.145,0],[1,0.5,0],[0.855,0.855,0],[0.5,1,0],[0.145,0.855,0],[0,0.5,0]];shape=mxgraph.bpmn.event;html=1;verticalLabelPosition=bottom;labelBackgroundColor=#ffffff;verticalAlign=top;align=center;perimeter=ellipsePerimeter;outlineConnect=0;aspect=fixed;outline=end;symbol=terminate2;" vertex="1" parent="zPhImzooVI-DvbAVHhCg-45">
          <mxGeometry x="1500" y="135" width="50" height="50" as="geometry" />
        </mxCell>
        <mxCell id="zPhImzooVI-DvbAVHhCg-87" style="edgeStyle=orthogonalEdgeStyle;rounded=0;orthogonalLoop=1;jettySize=auto;html=1;exitX=1;exitY=0.5;exitDx=0;exitDy=0;exitPerimeter=0;entryX=0;entryY=0.5;entryDx=0;entryDy=0;entryPerimeter=0;" edge="1" parent="zPhImzooVI-DvbAVHhCg-45" source="zPhImzooVI-DvbAVHhCg-74" target="zPhImzooVI-DvbAVHhCg-86">
          <mxGeometry relative="1" as="geometry" />
        </mxCell>
      </root>
    </mxGraphModel>
  </diagram>
  <diagram id="ufokB401H0g6Sdl2C7Oe" name="Страница — 2">
    <mxGraphModel dx="1041" dy="1773" grid="1" gridSize="10" guides="1" tooltips="1" connect="1" arrows="1" fold="1" page="1" pageScale="1" pageWidth="827" pageHeight="1169" math="0" shadow="0">
      <root>
        <mxCell id="0" />
        <mxCell id="1" parent="0" />
        <mxCell id="JsPd91nVL2_jQg8QvLJV-2" value="&lt;b style=&quot;text-wrap: nowrap;&quot;&gt;Оформление путевки в туристическом агентстве&lt;/b&gt;" style="rounded=0;whiteSpace=wrap;html=1;" vertex="1" parent="1">
          <mxGeometry x="204" y="220" width="426" height="240" as="geometry" />
        </mxCell>
        <mxCell id="-q6v4KqZBe0GF6nBqy5H-1" value="" style="endArrow=classic;html=1;rounded=0;entryX=0;entryY=0.292;entryDx=0;entryDy=0;entryPerimeter=0;" edge="1" parent="1" target="JsPd91nVL2_jQg8QvLJV-2">
          <mxGeometry width="50" height="50" relative="1" as="geometry">
            <mxPoint x="30" y="290" as="sourcePoint" />
            <mxPoint x="120" y="240" as="targetPoint" />
          </mxGeometry>
        </mxCell>
        <mxCell id="-q6v4KqZBe0GF6nBqy5H-2" value="" style="endArrow=classic;html=1;rounded=0;entryX=0;entryY=0.292;entryDx=0;entryDy=0;entryPerimeter=0;" edge="1" parent="1">
          <mxGeometry width="50" height="50" relative="1" as="geometry">
            <mxPoint x="30" y="390" as="sourcePoint" />
            <mxPoint x="204" y="390" as="targetPoint" />
          </mxGeometry>
        </mxCell>
        <mxCell id="-q6v4KqZBe0GF6nBqy5H-4" value="Заявка от клиента" style="text;html=1;align=center;verticalAlign=middle;resizable=0;points=[];autosize=1;strokeColor=none;fillColor=none;" vertex="1" parent="1">
          <mxGeometry x="20" y="260" width="130" height="30" as="geometry" />
        </mxCell>
        <mxCell id="-q6v4KqZBe0GF6nBqy5H-5" value="Коммерческая необходимость" style="text;html=1;align=center;verticalAlign=middle;resizable=0;points=[];autosize=1;strokeColor=none;fillColor=none;" vertex="1" parent="1">
          <mxGeometry x="16" y="360" width="200" height="30" as="geometry" />
        </mxCell>
        <mxCell id="-q6v4KqZBe0GF6nBqy5H-6" value="" style="endArrow=classic;html=1;rounded=0;entryX=0.12;entryY=-0.004;entryDx=0;entryDy=0;entryPerimeter=0;" edge="1" parent="1">
          <mxGeometry width="50" height="50" relative="1" as="geometry">
            <mxPoint x="294" y="50" as="sourcePoint" />
            <mxPoint x="295.1199999999999" y="219.03999999999996" as="targetPoint" />
          </mxGeometry>
        </mxCell>
        <mxCell id="-q6v4KqZBe0GF6nBqy5H-7" value="Законодательные&amp;nbsp;&lt;div&gt;акты&lt;/div&gt;" style="text;html=1;align=center;verticalAlign=middle;resizable=0;points=[];autosize=1;strokeColor=none;fillColor=none;" vertex="1" parent="1">
          <mxGeometry x="230" y="10" width="130" height="40" as="geometry" />
        </mxCell>
        <mxCell id="-q6v4KqZBe0GF6nBqy5H-8" value="" style="endArrow=classic;html=1;rounded=0;entryX=0.12;entryY=-0.004;entryDx=0;entryDy=0;entryPerimeter=0;" edge="1" parent="1">
          <mxGeometry width="50" height="50" relative="1" as="geometry">
            <mxPoint x="410" y="50" as="sourcePoint" />
            <mxPoint x="410" y="219" as="targetPoint" />
          </mxGeometry>
        </mxCell>
        <mxCell id="-q6v4KqZBe0GF6nBqy5H-9" value="Внутренняя&lt;div&gt;нормативная&lt;/div&gt;&lt;div&gt;документация&lt;/div&gt;&lt;div&gt;&lt;br&gt;&lt;/div&gt;" style="text;html=1;align=center;verticalAlign=middle;resizable=0;points=[];autosize=1;strokeColor=none;fillColor=none;" vertex="1" parent="1">
          <mxGeometry x="355" width="100" height="70" as="geometry" />
        </mxCell>
        <mxCell id="-q6v4KqZBe0GF6nBqy5H-10" value="" style="endArrow=classic;html=1;rounded=0;entryX=0.12;entryY=-0.004;entryDx=0;entryDy=0;entryPerimeter=0;" edge="1" parent="1">
          <mxGeometry width="50" height="50" relative="1" as="geometry">
            <mxPoint x="520" y="50" as="sourcePoint" />
            <mxPoint x="520" y="219" as="targetPoint" />
          </mxGeometry>
        </mxCell>
        <mxCell id="-q6v4KqZBe0GF6nBqy5H-12" value="&lt;div&gt;Договоры с&amp;nbsp;&lt;/div&gt;&lt;div&gt;операторами&lt;/div&gt;&lt;div&gt;и отелями&lt;/div&gt;" style="text;html=1;align=center;verticalAlign=middle;resizable=0;points=[];autosize=1;strokeColor=none;fillColor=none;" vertex="1" parent="1">
          <mxGeometry x="470" y="-1" width="100" height="60" as="geometry" />
        </mxCell>
        <mxCell id="-q6v4KqZBe0GF6nBqy5H-14" value="" style="endArrow=classic;html=1;rounded=0;" edge="1" parent="1">
          <mxGeometry width="50" height="50" relative="1" as="geometry">
            <mxPoint x="280" y="610" as="sourcePoint" />
            <mxPoint x="280" y="460" as="targetPoint" />
          </mxGeometry>
        </mxCell>
        <mxCell id="-q6v4KqZBe0GF6nBqy5H-15" value="Клиент" style="text;html=1;align=center;verticalAlign=middle;resizable=0;points=[];autosize=1;strokeColor=none;fillColor=none;" vertex="1" parent="1">
          <mxGeometry x="250" y="610" width="60" height="30" as="geometry" />
        </mxCell>
        <mxCell id="-q6v4KqZBe0GF6nBqy5H-16" value="" style="endArrow=classic;html=1;rounded=0;" edge="1" parent="1">
          <mxGeometry width="50" height="50" relative="1" as="geometry">
            <mxPoint x="355" y="610" as="sourcePoint" />
            <mxPoint x="355" y="460" as="targetPoint" />
          </mxGeometry>
        </mxCell>
        <mxCell id="-q6v4KqZBe0GF6nBqy5H-17" value="Менеджер&amp;nbsp;&lt;div&gt;по туризму&lt;/div&gt;&lt;div&gt;&lt;br&gt;&lt;/div&gt;" style="text;html=1;align=center;verticalAlign=middle;resizable=0;points=[];autosize=1;strokeColor=none;fillColor=none;" vertex="1" parent="1">
          <mxGeometry x="310" y="600" width="90" height="60" as="geometry" />
        </mxCell>
        <mxCell id="08ThJz1t9tKH8KS4rMao-1" value="" style="endArrow=classic;html=1;rounded=0;" edge="1" parent="1">
          <mxGeometry width="50" height="50" relative="1" as="geometry">
            <mxPoint x="430" y="610" as="sourcePoint" />
            <mxPoint x="430" y="460" as="targetPoint" />
          </mxGeometry>
        </mxCell>
        <mxCell id="08ThJz1t9tKH8KS4rMao-4" value="Служба&lt;div&gt;бронирования&lt;/div&gt;&lt;div&gt;&lt;br&gt;&lt;/div&gt;" style="text;html=1;align=center;verticalAlign=middle;resizable=0;points=[];autosize=1;strokeColor=none;fillColor=none;" vertex="1" parent="1">
          <mxGeometry x="380" y="600" width="100" height="60" as="geometry" />
        </mxCell>
        <mxCell id="08ThJz1t9tKH8KS4rMao-5" value="" style="endArrow=classic;html=1;rounded=0;" edge="1" parent="1">
          <mxGeometry width="50" height="50" relative="1" as="geometry">
            <mxPoint x="506" y="610" as="sourcePoint" />
            <mxPoint x="506" y="460" as="targetPoint" />
          </mxGeometry>
        </mxCell>
        <mxCell id="08ThJz1t9tKH8KS4rMao-6" value="Банк&amp;nbsp;&lt;div&gt;(эквайринг)&lt;/div&gt;" style="text;html=1;align=center;verticalAlign=middle;resizable=0;points=[];autosize=1;strokeColor=none;fillColor=none;" vertex="1" parent="1">
          <mxGeometry x="463" y="603" width="90" height="40" as="geometry" />
        </mxCell>
        <mxCell id="08ThJz1t9tKH8KS4rMao-7" value="" style="endArrow=classic;html=1;rounded=0;" edge="1" parent="1">
          <mxGeometry width="50" height="50" relative="1" as="geometry">
            <mxPoint x="600" y="610" as="sourcePoint" />
            <mxPoint x="600" y="460" as="targetPoint" />
          </mxGeometry>
        </mxCell>
        <mxCell id="08ThJz1t9tKH8KS4rMao-8" value="Партнер&amp;nbsp;&lt;div&gt;(отель, оператор)&lt;/div&gt;" style="text;html=1;align=center;verticalAlign=middle;resizable=0;points=[];autosize=1;strokeColor=none;fillColor=none;" vertex="1" parent="1">
          <mxGeometry x="550" y="603" width="120" height="40" as="geometry" />
        </mxCell>
        <mxCell id="08ThJz1t9tKH8KS4rMao-9" value="" style="endArrow=classic;html=1;rounded=0;entryX=0;entryY=0.292;entryDx=0;entryDy=0;entryPerimeter=0;" edge="1" parent="1">
          <mxGeometry width="50" height="50" relative="1" as="geometry">
            <mxPoint x="630" y="280" as="sourcePoint" />
            <mxPoint x="804" y="280" as="targetPoint" />
          </mxGeometry>
        </mxCell>
        <mxCell id="08ThJz1t9tKH8KS4rMao-10" value="Договор на оказание туруслуг" style="text;html=1;align=center;verticalAlign=middle;resizable=0;points=[];autosize=1;strokeColor=none;fillColor=none;" vertex="1" parent="1">
          <mxGeometry x="630" y="250" width="190" height="30" as="geometry" />
        </mxCell>
        <mxCell id="08ThJz1t9tKH8KS4rMao-11" value="" style="endArrow=classic;html=1;rounded=0;entryX=0;entryY=0.292;entryDx=0;entryDy=0;entryPerimeter=0;" edge="1" parent="1">
          <mxGeometry width="50" height="50" relative="1" as="geometry">
            <mxPoint x="630" y="330" as="sourcePoint" />
            <mxPoint x="804" y="330" as="targetPoint" />
          </mxGeometry>
        </mxCell>
        <mxCell id="08ThJz1t9tKH8KS4rMao-12" value="Бронь" style="text;html=1;align=center;verticalAlign=middle;resizable=0;points=[];autosize=1;strokeColor=none;fillColor=none;" vertex="1" parent="1">
          <mxGeometry x="759" y="300" width="60" height="30" as="geometry" />
        </mxCell>
        <mxCell id="08ThJz1t9tKH8KS4rMao-13" value="" style="endArrow=classic;html=1;rounded=0;entryX=0;entryY=0.292;entryDx=0;entryDy=0;entryPerimeter=0;" edge="1" parent="1">
          <mxGeometry width="50" height="50" relative="1" as="geometry">
            <mxPoint x="630" y="380" as="sourcePoint" />
            <mxPoint x="804" y="380" as="targetPoint" />
          </mxGeometry>
        </mxCell>
        <mxCell id="08ThJz1t9tKH8KS4rMao-14" value="Путевка" style="text;html=1;align=center;verticalAlign=middle;resizable=0;points=[];autosize=1;strokeColor=none;fillColor=none;" vertex="1" parent="1">
          <mxGeometry x="747" y="350" width="70" height="30" as="geometry" />
        </mxCell>
      </root>
    </mxGraphModel>
  </diagram>
</mxfile>
